<?xml version="1.0" standalone="no"?>
<!DOCTYPE svg PUBLIC "-//W3C//DTD SVG 20010904//EN"
 "http://www.w3.org/TR/2001/REC-SVG-20010904/DTD/svg10.dtd">
<svg version="1.0" xmlns="http://www.w3.org/2000/svg"
 width="500.000000pt" height="500.000000pt" viewBox="0 0 500.000000 500.000000"
 preserveAspectRatio="xMidYMid meet">

<g transform="translate(0.000000,500.000000) scale(0.100000,-0.100000)"
fill="#000000" stroke="none">
<path d="M2413 3618 c-26 -28 -30 -70 -8 -88 8 -7 15 -9 15 -4 0 4 5 3 11 -3
8 -8 6 -20 -8 -44 l-18 -34 -3 40 c-4 47 -26 75 -59 75 l-23 0 19 -39 c11 -21
27 -41 36 -44 24 -10 18 -24 -17 -36 -17 -6 -40 -18 -49 -27 -24 -21 -43 -10
-28 17 6 12 8 37 4 62 l-7 41 -25 -28 c-27 -31 -24 -56 10 -94 19 -20 19 -24
6 -37 -12 -13 -25 -13 -68 -5 -29 5 -63 7 -76 4 -23 -6 -43 20 -25 31 6 4 10
29 10 57 l0 51 -25 -23 c-29 -27 -32 -65 -8 -92 18 -20 12 -32 -26 -43 -21 -6
-23 -5 -16 11 8 22 9 26 7 72 -2 29 -4 32 -22 22 -28 -15 -36 -55 -16 -85 21
-31 20 -35 -10 -69 -24 -27 -48 -30 -26 -3 12 14 12 97 0 97 -4 0 -16 -12 -27
-27 -24 -29 -21 -52 11 -93 18 -23 18 -25 2 -37 -25 -18 -42 -16 -49 6 -3 11
-22 29 -41 40 l-35 21 3 -32 c2 -25 10 -36 32 -47 21 -10 25 -15 15 -22 -9 -5
-21 -1 -35 12 -27 25 -84 43 -84 26 0 -26 32 -57 58 -57 25 0 25 -1 10 -17
-14 -14 -22 -15 -43 -5 -30 14 -95 16 -95 4 0 -5 11 -19 24 -31 19 -18 32 -22
51 -17 24 6 25 5 15 -14 -8 -15 -17 -19 -28 -14 -19 8 -93 6 -102 -2 -3 -3 6
-15 20 -26 23 -18 44 -20 81 -4 14 6 16 2 10 -26 -8 -35 -8 -36 -87 -23 -36 6
-43 4 -58 -16 -26 -38 -21 -48 21 -38 21 4 43 15 49 23 9 13 34 23 34 13 0 -1
-22 -26 -48 -54 -38 -40 -52 -49 -64 -42 -10 5 -35 6 -58 3 -39 -6 -40 -8 -24
-25 25 -28 52 -33 79 -15 28 19 30 17 13 -19 -11 -24 -16 -26 -49 -21 -43 7
-75 -14 -85 -56 l-6 -27 42 20 c22 11 43 26 47 34 11 32 33 16 33 -24 0 -22 5
-43 10 -46 6 -4 10 7 10 27 0 56 53 153 100 184 35 23 43 25 51 13 16 -26 10
-36 -20 -31 -33 5 -71 -26 -71 -58 0 -17 3 -18 28 -8 15 6 34 20 44 30 20 23
37 23 54 1 19 -26 17 -30 -16 -30 -35 0 -55 -17 -64 -55 l-6 -26 41 19 c22 11
42 26 46 34 7 21 37 19 57 -4 17 -19 17 -20 -25 -31 -24 -7 -60 -20 -79 -30
-34 -17 -36 -17 -59 1 -13 10 -27 19 -32 19 -16 0 -9 -29 10 -42 19 -13 18
-15 -13 -32 -31 -16 -36 -17 -64 -2 -52 27 -87 15 -105 -36 -5 -14 0 -16 31
-11 20 3 44 12 53 19 31 27 43 14 14 -16 -22 -23 -38 -30 -67 -30 -42 0 -78
-27 -78 -59 0 -18 3 -19 31 -9 17 6 36 19 42 29 16 25 31 25 17 0 -5 -11 -10
-28 -10 -39 0 -10 -16 -35 -35 -55 -39 -41 -42 -53 -19 -86 l17 -23 14 33 c8
19 12 44 10 57 -2 12 0 22 4 22 5 0 9 -4 9 -10 0 -5 12 -35 27 -67 17 -34 28
-75 28 -100 0 -22 3 -39 8 -36 4 2 7 13 7 24 0 10 5 19 11 19 7 0 9 -9 6 -21
-6 -21 20 -89 33 -89 4 0 12 12 18 26 15 31 4 54 -38 84 -16 12 -30 30 -30 41
0 11 -7 34 -16 50 -8 17 -13 33 -10 36 8 9 26 -8 26 -25 1 -16 43 -72 55 -72
3 0 5 15 5 33 0 39 -21 62 -66 71 -35 8 -46 31 -37 77 7 36 20 37 34 3 12 -34
55 -85 63 -77 8 9 7 56 -2 70 -4 7 -25 19 -46 28 l-38 16 27 29 c30 31 45 31
45 -1 0 -11 11 -36 24 -55 l24 -35 9 28 c10 28 1 73 -15 73 -4 0 -17 6 -27 14
-18 13 -12 17 75 60 102 49 216 73 294 60 l39 -6 -26 -22 c-15 -11 -29 -33
-33 -48 l-6 -27 42 20 c22 11 43 26 47 34 6 17 41 19 63 5 12 -8 11 -10 -6
-10 -29 0 -52 -20 -59 -52 l-7 -27 41 16 c22 9 43 24 46 34 8 26 19 24 70 -11
60 -41 95 -86 95 -121 0 -17 8 -53 17 -82 l17 -51 -37 -70 c-20 -39 -39 -88
-43 -108 -4 -26 -16 -45 -39 -63 -19 -14 -36 -34 -40 -44 -3 -10 -19 -24 -35
-31 -17 -7 -30 -16 -30 -21 0 -5 -24 -9 -53 -9 -31 0 -61 -6 -75 -15 -12 -9
-41 -16 -64 -15 -24 0 -64 -3 -91 -6 -50 -6 -55 -4 -144 78 -20 17 -23 18 -23
4 0 -9 11 -28 25 -42 33 -33 32 -35 -12 -20 -38 13 -38 14 -35 62 2 46 1 48
-13 29 -21 -26 -29 -59 -21 -89 7 -29 66 -66 105 -66 22 0 30 -6 35 -24 3 -13
8 -31 11 -38 4 -10 -7 -18 -35 -27 -43 -13 -68 -46 -57 -75 9 -22 24 -20 30 4
3 12 14 20 26 20 12 0 38 7 57 15 36 15 36 15 67 -21 37 -42 76 -64 111 -64
16 0 32 -10 46 -30 36 -51 118 -78 147 -49 8 8 22 2 52 -19 22 -16 58 -33 78
-37 45 -8 63 -21 63 -46 0 -10 8 -24 18 -31 10 -7 31 -31 46 -53 26 -38 27
-39 20 -10 -4 17 -15 48 -25 70 -29 64 -27 69 32 62 29 -4 54 -9 57 -12 3 -3
-5 -36 -18 -73 -34 -99 -35 -101 -1 -50 16 25 36 50 43 55 7 4 18 21 23 37 8
23 19 31 58 41 26 7 63 24 83 38 30 21 41 24 60 15 39 -18 90 -1 127 42 20 24
43 40 56 40 32 0 72 23 108 64 31 36 31 36 67 21 19 -8 45 -15 57 -15 13 0 23
-8 26 -20 7 -26 27 -21 31 8 4 27 -30 61 -69 69 -23 4 -28 10 -23 22 3 9 9 26
11 39 4 17 12 22 37 22 37 0 101 41 109 69 5 19 -26 101 -39 101 -3 0 -3 -20
0 -45 7 -44 7 -44 -30 -60 -49 -20 -50 -20 -20 16 34 40 36 72 4 40 -13 -12
-40 -36 -61 -53 -34 -28 -42 -30 -85 -23 -26 3 -64 6 -85 6 -20 -1 -50 5 -67
14 -16 8 -49 15 -73 15 -27 0 -49 6 -57 15 -7 8 -17 15 -23 15 -20 0 -117 114
-117 138 0 13 -18 60 -40 103 -33 69 -38 84 -29 107 6 15 15 54 19 87 8 53 14
64 53 100 24 22 55 46 70 54 24 13 28 12 49 -11 13 -14 35 -30 51 -36 23 -10
27 -9 27 6 0 31 -29 62 -58 62 -21 0 -24 2 -12 10 23 15 57 12 64 -5 6 -16 74
-50 83 -41 11 11 -11 49 -39 66 l-30 18 55 7 c30 4 65 4 77 0 13 -4 41 -9 64
-10 45 -3 156 -42 156 -55 0 -4 -11 -15 -25 -24 -27 -18 -33 -53 -14 -88 10
-18 12 -17 31 18 12 22 17 46 14 60 -7 28 3 30 46 8 l31 -16 -31 -25 c-31 -24
-39 -52 -26 -88 5 -13 11 -9 30 17 13 17 24 42 24 54 0 35 14 36 45 4 l27 -29
-38 -16 c-21 -9 -42 -21 -46 -28 -9 -14 -10 -61 -2 -70 8 -8 51 43 63 77 14
35 29 33 36 -6 4 -23 -2 -52 -20 -95 -14 -35 -25 -69 -25 -77 0 -8 -16 -27
-35 -42 -37 -28 -44 -58 -24 -96 10 -19 12 -18 29 20 10 22 16 50 13 61 -3 12
-1 21 6 21 6 0 11 -9 11 -19 0 -11 5 -23 10 -26 7 -4 9 2 4 19 -6 27 12 96 26
96 5 0 9 -15 9 -32 -1 -18 4 -46 10 -62 9 -23 14 -26 26 -16 25 21 18 66 -16
98 l-31 28 22 42 c22 42 35 56 23 26 -6 -17 16 -94 27 -94 8 0 30 46 30 62 0
7 -13 26 -28 43 -26 27 -68 115 -55 115 3 0 12 -8 21 -18 10 -10 29 -24 45
-30 25 -11 27 -10 27 13 0 31 -37 56 -77 53 -32 -2 -97 47 -86 65 3 6 1 7 -5
3 -6 -3 -27 1 -46 11 -34 16 -35 17 -16 30 26 19 26 43 0 36 -10 -3 -24 -11
-31 -19 -9 -11 -17 -10 -47 5 -21 10 -56 24 -79 31 l-42 13 39 38 c22 22 40
43 40 49 0 17 31 11 48 -8 10 -10 29 -24 45 -30 25 -11 27 -10 27 13 0 32 -41
60 -76 51 -23 -6 -25 -5 -19 16 4 13 9 24 10 26 6 6 60 -26 76 -44 31 -35 69
-123 69 -159 0 -22 4 -34 10 -30 15 9 12 78 -5 119 l-16 37 25 -16 c28 -19 55
-14 80 14 17 18 16 19 -24 26 -27 4 -46 3 -55 -5 -12 -10 -24 -3 -67 42 -29
31 -61 58 -70 61 -12 4 -18 17 -18 36 0 28 1 29 29 18 23 -9 34 -7 55 6 14 10
26 21 26 26 0 13 -71 21 -91 11 -24 -14 -27 -13 -39 10 -10 18 -8 19 19 14 21
-5 34 -1 50 15 12 12 21 26 21 31 0 16 -72 12 -90 -5 -15 -14 -20 -14 -41 4
l-24 20 26 1 c29 0 59 27 59 53 0 14 -5 14 -32 5 -18 -6 -42 -19 -53 -29 -13
-11 -25 -15 -34 -10 -10 7 -6 12 15 22 27 13 55 62 42 74 -10 10 -76 -35 -81
-55 -6 -22 -23 -25 -47 -10 -13 8 -12 15 8 50 25 44 23 67 -7 94 -18 17 -19
16 -26 -24 -4 -26 -3 -46 5 -55 7 -8 10 -19 8 -25 -1 -5 -16 6 -32 26 l-28 36
18 34 c17 31 17 37 4 61 -29 51 -43 42 -38 -26 2 -33 3 -61 2 -61 -2 0 -15 5
-31 11 -41 17 -71 18 -132 7 -42 -8 -56 -7 -67 4 -12 12 -10 19 11 48 31 42
31 52 1 87 l-24 27 -7 -42 c-5 -29 -3 -48 6 -58 9 -11 9 -18 1 -26 -8 -8 -18
-5 -38 11 -15 11 -32 21 -38 21 -6 0 -18 5 -26 10 -13 8 -11 13 11 32 14 13
31 35 37 51 10 23 9 27 -6 27 -37 0 -62 -29 -62 -73 0 -40 0 -41 -16 -19 -8
12 -12 27 -9 32 4 6 2 9 -3 8 -6 -2 -10 2 -11 7 0 6 7 10 16 10 26 0 44 42 31
71 -16 35 -36 37 -43 4 -14 -65 -51 -57 -57 14 l-3 38 -22 -24z m67 -168 c0
-5 -7 -7 -15 -4 -8 4 -12 10 -9 15 6 11 24 2 24 -11z m-122 -94 c-24 -51 -29
-54 -49 -30 -11 14 -8 21 25 51 21 19 40 33 42 30 3 -2 -5 -25 -18 -51z m138
46 c21 -13 54 -91 68 -157 16 -78 8 -137 -31 -210 -15 -27 -37 -84 -49 -125
-17 -55 -23 -67 -23 -44 -1 42 -30 133 -52 162 -10 13 -25 46 -35 74 -33 101
4 260 69 292 37 18 38 18 53 8z m109 -42 c26 -27 28 -32 13 -46 -14 -14 -17
-12 -37 26 -11 22 -21 43 -21 45 0 13 19 2 45 -25z m-375 -35 c-3 -5 -25 -8
-50 -6 l-45 3 20 -22 c13 -14 27 -20 43 -17 21 4 23 2 17 -22 -9 -35 -9 -35
-46 -22 -18 6 -61 11 -95 11 -63 0 -76 7 -51 28 7 6 28 7 55 2 46 -8 53 1 22
27 -15 13 -16 19 -7 25 17 12 143 5 137 -7z m607 -1 l23 -6 -25 -20 c-14 -11
-25 -23 -25 -27 0 -10 52 -7 69 3 12 8 41 -9 41 -24 0 -5 -27 -8 -59 -8 -33 0
-76 -5 -96 -12 -42 -14 -41 -14 -51 24 -5 21 -4 27 5 22 18 -11 58 1 65 20 6
14 0 16 -39 12 -43 -5 -62 1 -48 16 8 8 110 8 140 0z m-520 -25 c7 -7 8 -21 2
-42 -5 -18 -9 -44 -9 -59 0 -31 -7 -34 -34 -13 -18 14 -18 45 0 108 6 19 25
22 41 6z m342 -36 c16 -55 13 -77 -9 -91 -11 -7 -20 -11 -20 -9 0 2 -5 29 -11
60 -5 32 -7 62 -4 67 13 21 35 8 44 -27z m-539 -70 c11 -4 9 -7 -8 -14 -22 -8
-50 -54 -40 -65 9 -9 78 24 84 41 8 19 34 19 60 0 18 -14 18 -14 -8 -15 -29 0
-58 -32 -58 -62 0 -15 4 -16 28 -6 15 6 37 22 49 34 l22 24 22 -31 c12 -17 24
-48 26 -69 l5 -39 -45 14 c-24 7 -70 16 -101 20 -83 11 -132 57 -150 142 -6
25 -4 32 11 36 19 5 77 -1 103 -10z m810 -22 c-1 -27 -36 -95 -63 -120 -18
-16 -49 -28 -99 -36 -40 -7 -85 -16 -100 -20 -26 -7 -28 -5 -28 26 0 19 9 49
21 68 l21 34 21 -25 c12 -13 34 -30 50 -36 23 -10 27 -9 27 6 0 30 -29 62 -57
62 -26 0 -26 1 -7 15 25 19 53 19 61 0 3 -9 23 -24 44 -34 38 -19 39 -19 39
-1 0 32 -12 51 -39 63 -25 11 -25 11 19 16 61 8 90 2 90 -18z m-970 4 c0 -16
-17 -19 -46 -8 -16 6 -16 7 2 14 30 12 44 10 44 -6z m1068 -8 c21 -12 20 -13
-18 -14 -29 -2 -40 2 -40 13 0 17 27 18 58 1z m-1171 -37 c-6 -16 -8 -32 -5
-35 9 -9 78 27 78 42 0 26 28 12 39 -18 6 -18 11 -33 11 -35 0 -1 -18 0 -40 3
-40 6 -50 -3 -28 -25 15 -15 50 -16 64 -2 8 8 15 6 24 -5 11 -13 4 -15 -58
-15 -39 0 -79 -3 -89 -6 -17 -5 -17 -5 -1 9 10 8 15 17 11 20 -11 11 -48 8
-61 -5 -9 -9 -12 -8 -12 5 0 14 65 97 75 97 2 0 -2 -13 -8 -30z m1267 -35 c20
-30 22 -65 4 -47 -13 13 -50 16 -61 5 -4 -3 1 -12 11 -20 16 -14 16 -14 -1 -9
-10 3 -50 6 -89 6 -59 0 -69 2 -59 14 9 11 18 12 41 3 22 -8 32 -8 44 2 28 23
18 34 -25 28 -35 -5 -40 -3 -34 11 4 10 10 25 12 35 6 18 33 24 33 7 0 -12 59
-50 77 -50 13 0 6 37 -11 59 -7 10 -2 9 16 -3 15 -10 34 -28 42 -41z m-992
-131 c48 -8 107 -22 130 -31 l43 -18 -35 -5 c-26 -4 -37 -11 -44 -32 -5 -15
-7 -30 -4 -33 9 -10 59 14 79 38 l19 22 30 -33 c23 -25 30 -42 30 -73 0 -46
-14 -79 -35 -79 -8 0 -47 15 -87 33 -63 29 -74 38 -83 68 -11 36 -48 58 -80
45 -16 -6 -15 -10 11 -38 l29 -31 -25 6 c-14 4 -33 7 -42 7 -10 0 -18 6 -18
14 0 8 -9 24 -20 37 l-19 24 -1 -32 c0 -23 -5 -33 -15 -33 -9 0 -15 9 -15 24
0 30 -9 56 -20 56 -14 0 -20 -31 -10 -51 11 -20 4 -24 -23 -13 -11 4 -14 16
-10 45 4 25 2 39 -5 39 -15 0 -30 -32 -24 -50 7 -23 -58 41 -74 72 -8 15 -14
29 -14 32 0 17 200 12 332 -10z m961 10 c32 -6 37 -10 31 -28 -3 -11 -24 -39
-46 -61 -23 -22 -38 -33 -35 -23 3 9 0 24 -7 34 -13 17 -14 16 -20 -4 -4 -12
-5 -31 -1 -41 4 -15 -1 -21 -26 -30 -31 -11 -32 -11 -15 8 11 13 15 27 11 40
-12 39 -35 17 -35 -35 0 -15 -6 -24 -16 -24 -10 0 -13 6 -10 18 3 9 2 23 -3
31 -7 10 -12 8 -25 -10 -9 -13 -16 -29 -16 -36 0 -7 -8 -13 -17 -13 -10 0 -29
-3 -43 -7 l-25 -6 28 30 c29 32 27 43 -9 43 -29 0 -53 -25 -60 -60 -5 -23 -18
-32 -83 -58 -43 -18 -82 -32 -88 -32 -19 0 -36 58 -28 97 6 36 39 83 57 83 5
0 19 -11 31 -23 12 -13 34 -29 50 -35 27 -11 27 -11 21 16 -10 39 -23 52 -53
52 -25 1 -25 1 -7 15 26 20 142 44 256 54 131 11 140 12 183 5z m-756 -968
c-12 -35 -89 -111 -106 -104 -20 7 80 125 116 137 1 1 -3 -14 -10 -33z m330
-54 c24 -30 41 -57 39 -60 -3 -2 -25 10 -50 28 -39 28 -66 70 -66 102 0 17 36
-16 77 -70z m-151 -47 c3 -16 15 -47 25 -67 12 -23 19 -58 19 -90 0 -77 -8
-98 -36 -98 -27 0 -28 3 -14 31 29 53 28 179 -1 179 -6 0 -5 -8 2 -21 21 -39
-18 -169 -51 -169 -27 0 -56 112 -40 154 6 16 6 26 0 26 -22 0 -25 -101 -4
-169 6 -19 4 -22 -11 -19 -41 7 -44 128 -6 203 12 21 21 47 21 56 0 9 10 29
21 44 l22 27 23 -29 c13 -15 26 -41 30 -58z m-656 45 c12 -7 12 -12 3 -21 -9
-9 -16 -9 -28 1 -29 24 -9 42 25 20z m310 -42 c-15 -34 -27 -48 -47 -53 -16
-3 -38 -15 -49 -26 l-22 -20 -26 56 c-14 32 -23 61 -20 66 3 5 35 9 72 10 37
0 76 4 87 8 11 5 21 7 23 6 1 -1 -7 -22 -18 -47z m665 25 c33 -2 70 -6 83 -9
l23 -5 -26 -43 c-14 -23 -25 -50 -25 -59 0 -21 -14 -22 -30 -1 -8 8 -28 21
-46 29 -22 9 -39 27 -53 56 -25 52 -25 53 -3 44 9 -4 44 -10 77 -12z m275 8
c0 -5 -6 -14 -14 -20 -10 -8 -16 -8 -25 3 -9 11 -9 15 1 19 21 9 38 8 38 -2z
m-1148 -68 c21 -24 41 -64 35 -70 -9 -8 -66 27 -78 48 -9 17 -8 23 2 30 20 12
24 11 41 -8z m1053 -18 c0 -17 -56 -65 -76 -65 -11 0 9 51 29 73 20 22 47 18
47 -8z m-745 -32 c0 -15 -52 -73 -61 -68 -16 10 -10 53 9 64 19 12 52 14 52 4z
m452 -20 c12 -14 13 -24 6 -43 l-10 -25 -29 35 c-16 19 -29 38 -29 42 0 15 47
8 62 -9z m-403 -99 c1 -29 -8 -35 -33 -22 -53 27 -56 36 -28 79 l27 41 17 -39
c9 -21 17 -47 17 -59z m-160 55 c6 -18 11 -34 11 -35 0 -12 -70 -1 -81 12 -11
14 -10 19 10 35 33 27 47 24 60 -12z m518 -14 l22 -34 -26 -20 c-33 -27 -53
-27 -53 1 0 25 21 88 30 88 3 0 15 -16 27 -35z m158 19 c28 -21 8 -48 -39 -52
-20 -2 -36 -1 -36 1 0 2 5 18 11 36 12 34 32 39 64 15z"/>
<path d="M2457 3323 c-9 -8 24 -32 46 -33 20 0 22 11 5 28 -13 13 -41 16 -51
5z"/>
<path d="M2466 3265 c-37 -38 -7 -46 51 -15 21 11 36 20 33 21 -50 9 -70 8
-84 -6z"/>
<path d="M2432 3128 c-16 -16 -15 -48 2 -48 8 0 19 14 25 30 11 32 -3 42 -27
18z"/>
<path d="M2447 3067 c-15 -23 -15 -24 11 -20 43 7 75 25 60 35 -24 15 -56 8
-71 -15z"/>
<path d="M2200 3051 c0 -16 39 -33 61 -26 11 4 18 12 16 18 -4 15 -77 22 -77
8z"/>
<path d="M2657 3043 c-12 -11 -8 -21 13 -28 21 -7 60 10 60 25 0 11 -63 14
-73 3z"/>
<path d="M1825 2961 c-6 -11 26 -31 49 -31 19 0 21 11 4 28 -14 14 -44 16 -53
3z"/>
<path d="M1996 2943 c-28 -15 -29 -16 -11 -29 31 -23 62 -17 85 16 l21 30 -33
0 c-18 -1 -46 -8 -62 -17z"/>
<path d="M2131 2915 l-34 -12 24 -16 c34 -24 62 -21 92 11 l26 27 -37 1 c-20
1 -52 -4 -71 -11z"/>
<path d="M2229 2823 c-13 -3 -11 -9 11 -33 15 -16 40 -34 55 -40 26 -10 27 -9
21 17 -7 29 -40 64 -60 62 -6 -1 -18 -3 -27 -6z"/>
<path d="M3050 2945 c-7 -8 -10 -18 -7 -21 8 -8 62 11 62 22 0 16 -41 16 -55
-1z"/>
<path d="M2857 2924 c20 -31 48 -39 85 -23 l30 12 -34 18 c-19 10 -49 17 -66
17 -30 -1 -30 -2 -15 -24z"/>
<path d="M2717 2888 c15 -16 35 -28 46 -28 22 0 57 18 57 29 0 11 -45 24 -92
25 l-37 2 26 -28z"/>
<path d="M2651 2809 c-12 -5 -26 -20 -31 -34 -13 -35 -13 -48 3 -38 6 4 18 8
26 10 8 1 26 15 41 31 27 30 27 30 5 34 -12 3 -32 1 -44 -3z"/>
<path d="M2150 3494 c0 -20 32 -75 49 -84 17 -9 22 -8 28 6 9 25 -18 66 -49
75 -16 4 -28 5 -28 3z"/>
<path d="M2822 3453 c-3 -52 13 -80 34 -62 15 12 19 57 6 74 -4 6 -14 15 -22
22 -13 9 -15 4 -18 -34z"/>
<path d="M2750 3480 c-29 -7 -52 -47 -44 -77 l6 -22 23 22 c21 19 50 76 43 82
-2 1 -14 -1 -28 -5z"/>
<path d="M3233 3003 c-21 -8 21 -44 61 -53 41 -9 46 1 20 38 -14 21 -51 28
-81 15z"/>
<path d="M3123 2843 c-22 -8 4 -41 48 -62 l41 -20 -6 27 c-11 44 -49 69 -83
55z"/>
<path d="M3363 2813 c-21 -4 -21 -5 -5 -24 9 -11 34 -29 55 -39 36 -18 37 -18
37 1 0 20 -42 70 -57 68 -4 -1 -18 -4 -30 -6z"/>
<path d="M1954 2736 c-18 -14 -18 -15 9 -21 30 -8 54 6 43 24 -10 15 -28 14
-52 -3z"/>
<path d="M1872 2724 c-28 -19 -28 -36 -1 -32 26 4 60 48 37 48 -7 0 -24 -7
-36 -16z"/>
<path d="M2917 2723 c7 -18 40 -26 59 -15 16 9 15 11 -3 20 -26 15 -62 11 -56
-5z"/>
<path d="M3020 2717 c0 -19 21 -37 42 -37 25 0 23 16 -4 34 -27 19 -38 20 -38
3z"/>
<path d="M3348 2703 c-39 -10 -7 -42 52 -53 46 -8 48 -3 19 34 -20 25 -34 29
-71 19z"/>
<path d="M1717 2659 c-3 -11 3 -39 13 -61 17 -38 19 -39 29 -20 16 31 13 67
-7 85 -24 22 -29 21 -35 -4z"/>
<path d="M3325 2453 c-35 -9 -55 -34 -55 -70 0 -18 3 -33 7 -33 13 0 53 53 53
70 0 9 5 21 12 28 7 7 10 11 8 11 -3 -1 -14 -4 -25 -6z"/>
<path d="M1522 2377 c-12 -13 -22 -31 -22 -41 0 -20 18 -56 28 -56 13 0 30 71
23 97 l-6 24 -23 -24z"/>
<path d="M1827 1187 c-20 -15 -41 -152 -32 -212 11 -71 25 -105 45 -105 22 0
30 19 30 69 0 25 7 44 20 56 20 18 20 17 20 -62 0 -64 4 -86 18 -104 25 -29
46 -21 71 30 l21 40 29 -30 c16 -16 38 -29 49 -29 23 0 67 42 90 85 l15 30 13
-30 c15 -38 49 -69 68 -62 8 3 17 25 21 49 15 103 28 149 45 170 19 23 19 23
20 2 0 -12 -7 -59 -16 -105 -19 -102 -14 -162 17 -195 45 -48 85 -25 108 62
10 37 13 40 39 36 18 -2 33 2 42 13 12 15 15 13 24 -16 23 -67 83 -66 110 2
l17 42 24 -23 c31 -29 69 -29 100 0 14 13 26 22 28 19 1 -2 9 -16 16 -31 18
-35 62 -54 90 -39 27 15 68 70 82 109 18 52 27 36 12 -20 -27 -102 23 -173 82
-118 33 31 90 169 76 183 -7 7 -12 5 -17 -9 -17 -47 -53 -121 -68 -139 -15
-19 -15 -18 -16 18 0 21 8 67 17 101 17 67 13 102 -12 92 -8 -3 -22 -9 -32
-13 -11 -4 -14 -3 -9 5 13 22 -4 52 -29 52 -41 0 -60 -66 -32 -111 10 -17 8
-27 -14 -66 -47 -85 -79 -82 -79 9 0 38 6 53 35 89 44 52 44 83 -1 87 -41 4
-78 -38 -100 -115 -38 -132 -116 -129 -101 4 5 50 37 97 37 54 0 -28 24 -23
28 6 3 20 -21 53 -39 53 -5 0 -22 -12 -39 -27 -24 -22 -35 -46 -51 -108 -20
-83 -49 -141 -57 -116 -3 8 3 59 13 113 17 93 17 100 2 116 -24 24 -89 22
-124 -4 -38 -29 -54 -64 -64 -149 -10 -82 -32 -151 -45 -147 -10 3 -10 47 1
179 7 78 5 96 -9 118 -37 56 -108 8 -122 -83 -7 -41 -9 -44 -15 -22 -4 14 -7
42 -8 62 -1 20 -4 43 -7 52 -7 19 -34 22 -34 4 0 -9 -3 -8 -10 2 -13 20 -30
-28 -30 -84 0 -29 -10 -58 -33 -96 -35 -60 -61 -74 -71 -38 -14 54 -6 89 29
131 53 62 43 109 -19 93 -35 -9 -62 -52 -85 -138 -11 -41 -26 -88 -33 -104
-11 -27 -12 -23 -18 55 -4 63 -10 86 -24 96 -11 8 -13 15 -6 20 17 10 50 82
50 108 0 56 -57 58 -91 4 l-19 -32 0 26 c0 35 -21 53 -43 36z m111 -49 c-6
-18 -22 -49 -36 -68 -20 -29 -23 -31 -17 -10 4 14 9 34 12 45 7 28 32 65 43
65 5 0 4 -14 -2 -32z m182 -52 c0 -8 -9 -24 -20 -37 l-20 -24 17 38 c18 40 23
45 23 23z m834 -31 c-23 -36 -29 -24 -8 17 9 18 19 28 21 21 2 -6 -3 -23 -13
-38z m-369 -37 c-9 -29 -23 -64 -31 -78 -13 -25 -13 -25 -14 12 0 42 14 85 37
111 25 27 27 13 8 -45z m474 55 c0 -5 -4 -17 -9 -28 -8 -18 -9 -17 -9 8 -1 15
4 27 9 27 6 0 10 -3 9 -7z"/>
</g>
</svg>
